<mxfile host="app.diagrams.net" modified="2023-03-14T06:12:54.690Z" agent="5.0 (Windows NT 10.0; Win64; x64) AppleWebKit/537.36 (KHTML, like Gecko) Chrome/111.0.0.0 Safari/537.36" etag="29Mx76Yucs8-FkZp6LRO" version="21.0.4" type="github">
  <diagram name="第 1 页" id="LquhRszavBS8XXZUnfNv">
    <mxGraphModel dx="1792" dy="709" grid="0" gridSize="10" guides="1" tooltips="1" connect="1" arrows="1" fold="1" page="0" pageScale="1" pageWidth="1654" pageHeight="2336" math="0" shadow="0">
      <root>
        <mxCell id="0" />
        <mxCell id="1" parent="0" />
        <mxCell id="YqvwTCxK3jnbaaos1Hsi-3" value="" style="edgeStyle=none;curved=1;rounded=0;sketch=1;hachureGap=4;jiggle=2;curveFitting=1;orthogonalLoop=1;jettySize=auto;html=1;fontFamily=Architects Daughter;fontSource=https%3A%2F%2Ffonts.googleapis.com%2Fcss%3Ffamily%3DArchitects%2BDaughter;fontSize=16;endArrow=open;startSize=14;endSize=14;sourcePerimeterSpacing=8;targetPerimeterSpacing=8;" edge="1" parent="1" source="YqvwTCxK3jnbaaos1Hsi-1" target="YqvwTCxK3jnbaaos1Hsi-2">
          <mxGeometry relative="1" as="geometry" />
        </mxCell>
        <mxCell id="YqvwTCxK3jnbaaos1Hsi-1" value="&lt;font style=&quot;font-size: 20px;&quot;&gt;管理员添加允许注册名单&lt;br&gt;&lt;/font&gt;" style="rounded=0;whiteSpace=wrap;html=1;sketch=1;hachureGap=4;jiggle=2;curveFitting=1;fontFamily=Architects Daughter;fontSize=26;align=center;fontSource=https%3A%2F%2Ffonts.googleapis.com%2Fcss%3Ffamily%3DArchitects%2BDaughter;" vertex="1" parent="1">
          <mxGeometry x="-43" y="10" width="160" height="80" as="geometry" />
        </mxCell>
        <mxCell id="YqvwTCxK3jnbaaos1Hsi-2" value="&lt;font style=&quot;font-size: 20px;&quot;&gt;学生通过平台进行注册&lt;br&gt;&lt;/font&gt;" style="rounded=0;whiteSpace=wrap;html=1;sketch=1;hachureGap=4;jiggle=2;curveFitting=1;fontFamily=Architects Daughter;fontSize=26;align=center;fontSource=https%3A%2F%2Ffonts.googleapis.com%2Fcss%3Ffamily%3DArchitects%2BDaughter;" vertex="1" parent="1">
          <mxGeometry x="-43" y="210" width="160" height="80" as="geometry" />
        </mxCell>
      </root>
    </mxGraphModel>
  </diagram>
</mxfile>
